<svg width="86" height="16" viewBox="0 0 86 16" fill="none" xmlns="http://www.w3.org/2000/svg">
<path d="M6.38485 15.1737C9.3917 15.1737 11.3899 13.329 11.3899 10.9709C11.3899 8.25151 9.73425 7.3387 6.5371 6.90131C4.17729 6.559 3.72056 6.00751 3.72056 4.90453C3.72056 3.8586 4.51984 3.11694 6.06133 3.11694C7.62185 3.11694 8.44016 3.72548 8.68756 5.15175H11.0093C10.7429 2.54643 8.99205 1.21524 6.06133 1.21524C3.22576 1.21524 1.32269 2.88873 1.32269 5.11372C1.32269 7.66199 2.86418 8.65087 6.11842 9.08826C8.32598 9.44958 8.95399 9.925 8.95399 11.1801C8.95399 12.4352 7.88827 13.272 6.38485 13.272C4.08214 13.272 3.53025 12.131 3.35897 10.7618H0.92305C1.11336 13.329 2.67387 15.1737 6.38485 15.1737ZM14.6016 14.9835H23.4319V12.9867H17.1327V9.01219H21.9284V7.1105H17.1327V3.38317H23.1083V1.38639H14.6016V14.9835ZM32.5327 13.1389C30.0587 13.1389 28.2508 11.2182 28.2508 8.25151V8.09938C28.2508 5.17077 29.8303 3.21202 32.4946 3.21202C35.1589 3.21202 36.7194 5.28487 36.7194 8.08036V8.2325C36.7194 11.1801 35.1018 13.1389 32.5327 13.1389ZM32.4946 15.1737C36.6242 15.1737 39.3456 12.188 39.3456 8.21348V8.06134C39.3456 4.06778 36.5481 1.19622 32.4946 1.19622C28.4601 1.19622 25.6055 4.14385 25.6055 8.11839V8.27053C25.6055 12.188 28.3269 15.1737 32.4946 15.1737ZM42.5514 14.9835H45.0825V9.41155H49.726V7.4528H45.0825V3.40219H50.982V1.38639H42.5514V14.9835ZM53.8098 14.9835H56.1125V0.435547H53.8098V14.9835ZM64.1337 13.3861C62.3828 13.3861 61.3742 12.112 61.3742 10.0771V9.925C61.3742 7.87117 62.4209 6.63507 64.1337 6.63507C65.8464 6.63507 66.8741 7.89019 66.8741 9.94402V10.0771C66.8741 12.112 65.8464 13.3861 64.1337 13.3861ZM64.1146 15.1737C67.0454 15.1737 69.2339 13.1579 69.2339 10.0581V9.90599C69.2339 6.86328 67.0454 4.82846 64.1337 4.82846C61.2029 4.82846 59.0144 6.88229 59.0144 9.96304V10.1152C59.0144 13.1389 61.1839 15.1737 64.1146 15.1737ZM73.8523 14.9835H76.2121L78.2293 8.28955L80.0753 14.9835H82.4161L85.5371 5.03765H83.2915L81.2172 12.2261L79.276 5.03765H77.3539L75.2415 12.2261L73.2623 5.03765H70.8074L73.8523 14.9835Z" fill="black"/>
</svg>
